<svg width="121" height="53" viewBox="0 0 121 53" fill="none" xmlns="http://www.w3.org/2000/svg">
<g clip-path="url(#clip0_98380_299)">
<path d="M63.5248 44.1014C63.5248 44.5624 63.3598 44.9578 63.0299 45.2877C62.7 45.6176 62.3046 45.7825 61.8437 45.7825H60.165V33.7262C60.165 31.4217 60.8394 29.8497 62.1906 29.0104C63.5394 28.1711 65.0046 27.7514 66.5862 27.7514C67.4085 27.7514 68.2406 27.9091 69.0799 28.2196C69.9193 28.5325 70.5864 28.9861 71.0812 29.578C72.0685 30.8613 72.5634 32.5084 72.5634 34.517C72.5634 36.5256 72.0685 38.2698 71.0812 39.5555C70.0939 40.8072 68.8252 41.433 67.2775 41.433C66.4552 41.433 65.7299 41.2851 65.104 40.9891C64.4442 40.6592 63.9178 40.1498 63.5224 39.4584V44.1063L63.5248 44.1014ZM69.1551 34.6626C69.1551 33.3793 68.9077 32.3896 68.4153 31.6982C67.9204 31.0069 67.2121 30.66 66.2927 30.66C65.3733 30.66 64.7135 31.0069 64.2186 31.6982C63.7577 32.3241 63.5272 33.3114 63.5272 34.6626C63.5272 35.9143 63.7747 36.8531 64.2671 37.4789C64.762 38.1703 65.4679 38.5172 66.3897 38.5172C67.246 38.5172 67.9204 38.1703 68.4153 37.4789C68.9101 36.7876 69.1551 35.8488 69.1551 34.6626Z" fill="white"/>
<path d="M73.5678 24.1927H75.3459C75.8068 24.1927 76.2022 24.3504 76.5321 24.6609C76.8596 24.9738 77.027 25.362 77.027 25.8205V41.1808H73.5702V24.1903L73.5678 24.1927Z" fill="white"/>
<path d="M86.7618 40.6398C86.0704 41.0037 85.3378 41.2245 84.564 41.3069C83.7902 41.3894 83.1061 41.4306 82.5142 41.4306C81.328 41.4306 80.2921 41.1104 79.4019 40.4676C78.514 39.8248 78.0677 38.7647 78.0677 37.2825C78.0677 35.8998 78.4703 34.9125 79.2781 34.3181C80.0835 33.7262 81.1145 33.3308 82.3638 33.1319C82.5287 33.1319 82.7252 33.1077 82.9557 33.0567C83.1861 33.0082 83.4506 32.967 83.7465 32.933C85.1947 32.7365 85.92 32.3071 85.92 31.6497C85.92 31.1549 85.6653 30.8347 85.1535 30.6867C84.6416 30.5387 84.1735 30.4635 83.7465 30.4635C83.2856 30.4635 82.8732 30.529 82.5118 30.66C82.1479 30.791 81.8859 31.0384 81.7209 31.3999H78.4121C78.5431 30.3786 79.004 29.5393 79.7948 28.8819C80.6851 28.125 81.9514 27.7466 83.5985 27.7466C85.4422 27.7466 86.8249 28.0595 87.7467 28.6854C88.7025 29.3452 89.1779 30.267 89.1779 31.4508V35.9459C89.1779 37.2631 88.9378 38.2916 88.4623 39.0339C87.9844 39.7738 87.4168 40.3099 86.7594 40.6398H86.7618ZM85.971 34.5656C85.5101 34.796 84.8672 35.0095 84.0449 35.2084L82.9096 35.4558C82.3177 35.6208 81.8883 35.8343 81.6263 36.0987C81.3959 36.4626 81.2819 36.824 81.2819 37.1855C81.2819 37.6803 81.4298 38.0733 81.7258 38.3717C82.0217 38.6361 82.4487 38.7671 83.0091 38.7671C83.9309 38.7671 84.6562 38.5051 85.1826 37.9763C85.709 37.4499 85.9734 36.7245 85.9734 35.8027V34.568L85.971 34.5656Z" fill="white"/>
<path d="M101.639 41.1832H99.9097C99.4148 41.1832 99.0121 41.0279 98.6992 40.715C98.3863 40.4021 98.231 39.9994 98.231 39.5045V32.7874C98.231 31.9966 97.9909 31.4217 97.5154 31.0578C97.0375 30.6963 96.5038 30.5144 95.9095 30.5144C95.3152 30.5144 94.7888 30.6963 94.3303 31.0578C93.8694 31.4217 93.639 31.9966 93.639 32.7874V41.1832H90.1822V33.4788C90.1822 31.2397 90.7668 29.743 91.936 28.9837C93.1053 28.2269 94.3982 27.8145 95.8125 27.749C97.2607 27.749 98.5949 28.1274 99.8127 28.8842C101.03 29.6411 101.639 31.1742 101.639 33.4763V41.1807V41.1832Z" fill="white"/>
<path d="M111.825 37.132H114.295C113.931 38.5148 113.24 39.57 112.221 40.2929C111.2 41.0497 109.916 41.4282 108.369 41.4282C106.491 41.4282 105.026 40.8193 103.973 39.6015C102.918 38.4153 102.391 36.7197 102.391 34.5146C102.391 32.3095 102.901 30.7618 103.922 29.5756C104.975 28.3578 106.44 27.749 108.318 27.749C110.292 27.749 111.825 28.3409 112.912 29.5271C113.965 30.7449 114.491 32.4405 114.491 34.614V35.1574C114.491 35.3224 114.474 35.4364 114.443 35.5019H105.899C105.931 36.5232 106.178 37.28 106.639 37.7749C107.066 38.3013 107.709 38.5657 108.565 38.5657C109.125 38.5657 109.603 38.4517 109.996 38.2212C110.096 38.1897 110.186 38.1315 110.268 38.049C110.35 37.9665 110.44 37.8768 110.54 37.7773C110.571 37.6779 110.695 37.5469 110.911 37.3819C111.124 37.2169 111.43 37.1345 111.825 37.1345V37.132ZM105.899 33.2798H110.938C110.872 32.3896 110.642 31.7322 110.246 31.3052C109.817 30.8443 109.208 30.6139 108.42 30.6139C107.694 30.6139 107.102 30.8443 106.641 31.3052C106.18 31.7661 105.933 32.4259 105.902 33.2798H105.899Z" fill="white"/>
<path d="M120.886 41.1832C119.799 41.2487 118.623 41.2317 117.354 41.1347C116.085 41.0352 115.452 40.2299 115.452 38.7137V24.1927H117.23C117.657 24.1927 118.038 24.3577 118.365 24.6876C118.693 25.0175 118.86 25.4129 118.86 25.8738V28.0959H120.886V28.7873C120.886 29.2821 120.721 29.6848 120.391 29.9977C120.061 30.3107 119.666 30.4659 119.205 30.4659H118.858V37.7749C118.858 38.3353 119.188 38.6143 119.845 38.6143H120.883V41.1832H120.886Z" fill="white"/>
<path d="M67.9307 44.919C67.7778 44.7759 67.5644 44.7031 67.2902 44.7031C67.0937 44.7031 66.9215 44.7443 66.776 44.8268C66.6304 44.9093 66.5043 45.0184 66.4072 45.1543C66.3102 45.2901 66.235 45.443 66.1841 45.6152C66.1331 45.7874 66.1089 45.9621 66.1089 46.1416C66.1089 46.3211 66.1331 46.4958 66.1841 46.668C66.235 46.8402 66.3078 46.9931 66.4072 47.1289C66.5043 47.2648 66.628 47.3715 66.776 47.454C66.9239 47.5365 67.0962 47.5777 67.2902 47.5777C67.4164 47.5777 67.5352 47.5534 67.6493 47.5049C67.7633 47.4564 67.8627 47.3909 67.9501 47.306C68.0374 47.2211 68.1102 47.1192 68.166 47.0028C68.2218 46.8863 68.2581 46.7578 68.2703 46.6171H68.6802C68.6244 47.027 68.474 47.3448 68.229 47.5728C67.9864 47.8009 67.6711 47.9149 67.2902 47.9149C67.0331 47.9149 66.8051 47.8688 66.6086 47.7742C66.4097 47.682 66.2447 47.5534 66.1089 47.3933C65.973 47.2332 65.8711 47.044 65.8008 46.8281C65.7304 46.6122 65.6965 46.3842 65.6965 46.1392C65.6965 45.8942 65.7304 45.6661 65.8008 45.4502C65.8711 45.2343 65.973 45.0476 66.1089 44.885C66.2423 44.7249 66.4097 44.5964 66.6086 44.4993C66.8075 44.4047 67.0331 44.3562 67.2902 44.3562C67.6517 44.3562 67.9573 44.4508 68.2072 44.6424C68.4571 44.8341 68.6075 45.1228 68.6535 45.5109H68.2412C68.1854 45.2586 68.0811 45.0597 67.9282 44.9166L67.9307 44.919Z" fill="white"/>
<path d="M70.941 44.4556V45.2464H70.9531C71.0574 44.9723 71.2199 44.7613 71.4383 44.6133C71.659 44.4653 71.921 44.3974 72.2242 44.412V44.8219C72.0374 44.8122 71.8676 44.8389 71.7148 44.8971C71.562 44.9553 71.431 45.0402 71.3194 45.1494C71.2078 45.2586 71.1229 45.3871 71.0623 45.5375C71.0016 45.6879 70.9701 45.8529 70.9701 46.03V47.8251H70.5577V44.4581H70.9361L70.941 44.4556Z" fill="white"/>
<path d="M74.1095 46.7116C74.1508 46.8693 74.2163 47.0124 74.3084 47.1386C74.4006 47.2647 74.5146 47.369 74.6553 47.4515C74.7936 47.534 74.961 47.5752 75.1575 47.5752C75.4583 47.5752 75.6936 47.4976 75.8634 47.3399C76.0332 47.1822 76.1496 46.9736 76.2151 46.7141H76.6275C76.5402 47.0973 76.3801 47.3933 76.1472 47.6019C75.9143 47.8105 75.5844 47.9148 75.1575 47.9148C74.8931 47.9148 74.6626 47.8687 74.4685 47.7741C74.2745 47.682 74.1168 47.5534 73.9955 47.3884C73.8742 47.2259 73.782 47.0367 73.7238 46.8208C73.6656 46.6049 73.6365 46.3769 73.6365 46.1391C73.6365 45.9184 73.6656 45.7001 73.7238 45.4866C73.782 45.2731 73.8718 45.0839 73.9955 44.9165C74.1168 44.7491 74.2745 44.6133 74.4685 44.5114C74.6626 44.4095 74.8906 44.3586 75.1575 44.3586C75.4243 44.3586 75.6572 44.4119 75.8488 44.5211C76.0405 44.6303 76.1957 44.7734 76.3146 44.9481C76.4334 45.1251 76.5208 45.3265 76.5717 45.5545C76.6251 45.7825 76.6469 46.0154 76.6372 46.2507H74.0464C74.0464 46.3987 74.0658 46.5515 74.1071 46.7116H74.1095ZM76.1472 45.4551C76.0963 45.3119 76.0259 45.1834 75.9362 45.0742C75.844 44.9626 75.7348 44.8753 75.6038 44.8074C75.4728 44.7394 75.3248 44.7055 75.1599 44.7055C74.9949 44.7055 74.8397 44.7394 74.7087 44.8074C74.5777 44.8753 74.4661 44.965 74.3764 45.0742C74.2842 45.1858 74.2114 45.3144 74.158 45.4599C74.1047 45.6055 74.0683 45.7534 74.0513 45.9063H76.2321C76.2273 45.7486 76.2006 45.5982 76.1496 45.4551H76.1472Z" fill="white"/>
<path d="M78.5824 44.9796C78.6527 44.8365 78.7473 44.7176 78.8662 44.6279C78.985 44.5357 79.1257 44.4702 79.2883 44.4265C79.4484 44.3829 79.6279 44.361 79.8244 44.361C79.9724 44.361 80.1203 44.3756 80.2683 44.4023C80.4163 44.4314 80.5497 44.4847 80.6661 44.5624C80.7826 44.64 80.8796 44.7516 80.9524 44.8923C81.0252 45.033 81.064 45.2173 81.064 45.4429V47.2308C81.064 47.3957 81.144 47.4782 81.3066 47.4782C81.3551 47.4782 81.3987 47.4685 81.4376 47.4515V47.7984C81.389 47.8081 81.3478 47.813 81.3114 47.8178C81.275 47.8227 81.2265 47.8251 81.1707 47.8251C81.0664 47.8251 80.9815 47.8105 80.9184 47.7839C80.8554 47.7547 80.8068 47.7159 80.7705 47.6626C80.7365 47.6116 80.7122 47.5486 80.7025 47.4758C80.6928 47.403 80.6855 47.3254 80.6855 47.238H80.6734C80.6006 47.3472 80.5254 47.4442 80.4478 47.5291C80.3726 47.614 80.2877 47.6844 80.1931 47.7402C80.0985 47.796 79.9942 47.8397 79.8729 47.8712C79.7516 47.9003 79.6109 47.9173 79.446 47.9173C79.281 47.9173 79.1427 47.8979 79.0045 47.8615C78.8662 47.8251 78.7473 47.7669 78.6454 47.6844C78.5436 47.6043 78.4635 47.5025 78.4029 47.3787C78.3446 47.255 78.3155 47.1071 78.3155 46.9372C78.3155 46.7019 78.3665 46.5176 78.4732 46.3866C78.5775 46.2532 78.7158 46.1537 78.888 46.0834C79.0603 46.013 79.2543 45.9645 79.4678 45.9354C79.6837 45.9063 79.902 45.8796 80.1228 45.8529C80.2101 45.8432 80.2853 45.8335 80.3508 45.8214C80.4163 45.8092 80.4697 45.785 80.5133 45.7534C80.557 45.7219 80.5909 45.6758 80.6152 45.62C80.6395 45.5642 80.6516 45.489 80.6516 45.3968C80.6516 45.2586 80.6298 45.1446 80.5837 45.0548C80.5376 44.9651 80.4745 44.8947 80.3945 44.8438C80.3144 44.7928 80.2198 44.7564 80.1131 44.737C80.0063 44.7176 79.8923 44.7079 79.771 44.7079C79.509 44.7079 79.2956 44.7686 79.1306 44.8947C78.9656 45.0184 78.8783 45.2173 78.8686 45.4915H78.4562C78.4684 45.295 78.5096 45.1252 78.5799 44.982L78.5824 44.9796ZM80.6395 45.9839C80.6128 46.0324 80.5643 46.0664 80.4891 46.0882C80.4163 46.11 80.3508 46.1246 80.2926 46.1343C80.1179 46.1658 79.9384 46.1925 79.754 46.2168C79.5697 46.241 79.3999 46.2774 79.247 46.3235C79.0942 46.372 78.9705 46.44 78.871 46.5297C78.774 46.6195 78.7231 46.7456 78.7231 46.9106C78.7231 47.0149 78.7425 47.1071 78.7861 47.1871C78.8274 47.2672 78.8832 47.3375 78.9535 47.3957C79.0239 47.4539 79.1039 47.5 79.1961 47.5291C79.2883 47.5607 79.3805 47.5752 79.4775 47.5752C79.6352 47.5752 79.7831 47.551 79.9287 47.5025C80.0718 47.4539 80.198 47.386 80.3047 47.2938C80.4114 47.2017 80.4963 47.0925 80.5594 46.9615C80.6225 46.8305 80.654 46.6825 80.654 46.5176V45.9815H80.6419L80.6395 45.9839Z" fill="white"/>
<path d="M84.5307 44.4556V44.8025H83.8466V47.0731C83.8466 47.2089 83.866 47.3132 83.9024 47.3909C83.9388 47.4661 84.031 47.5097 84.1789 47.5194C84.2954 47.5194 84.4142 47.5121 84.5307 47.5V47.8469C84.47 47.8469 84.4094 47.8469 84.3488 47.8542C84.2881 47.859 84.2275 47.8615 84.1668 47.8615C83.8927 47.8615 83.7011 47.8081 83.5919 47.7014C83.4827 47.5946 83.4318 47.3981 83.4342 47.1095V44.8049H82.8472V44.458H83.4342V43.4465H83.8466V44.458H84.5307V44.4556Z" fill="white"/>
<path d="M86.8475 43.1627V43.8225H86.4351V43.1627H86.8475ZM86.8475 44.4556V47.8227H86.4351V44.4556H86.8475Z" fill="white"/>
<path d="M89.0208 44.4556L90.0785 47.4127H90.0906L91.1361 44.4556H91.5606L90.3016 47.8227H89.865L88.5648 44.4556H89.0208Z" fill="white"/>
<path d="M93.5741 46.7116C93.6153 46.8693 93.6808 47.0124 93.773 47.1386C93.8652 47.2647 93.9792 47.369 94.1199 47.4515C94.2582 47.534 94.4256 47.5752 94.622 47.5752C94.9229 47.5752 95.1582 47.4976 95.328 47.3399C95.4978 47.1822 95.6142 46.9736 95.6797 46.7141H96.0897C96.0023 47.0973 95.8422 47.3933 95.6094 47.6019C95.3765 47.8105 95.0466 47.9148 94.6196 47.9148C94.3552 47.9148 94.1248 47.8687 93.9307 47.7741C93.7366 47.682 93.5789 47.5534 93.4577 47.3884C93.3364 47.2259 93.2466 47.0367 93.186 46.8208C93.1277 46.6049 93.0986 46.3769 93.0986 46.1391C93.0986 45.9184 93.1277 45.7001 93.186 45.4866C93.2442 45.2731 93.3339 45.0839 93.4577 44.9165C93.5789 44.7491 93.7366 44.6133 93.9307 44.5114C94.1248 44.4095 94.3528 44.3586 94.6196 44.3586C94.8865 44.3586 95.1193 44.4119 95.311 44.5211C95.5026 44.6303 95.6579 44.7734 95.7767 44.9481C95.8956 45.1251 95.9829 45.3265 96.0339 45.5545C96.0848 45.7825 96.1067 46.0154 96.0994 46.2507H93.5086C93.5086 46.3987 93.528 46.5515 93.5692 46.7116H93.5741ZM95.6118 45.4551C95.5608 45.3119 95.4905 45.1834 95.4007 45.0742C95.3086 44.9626 95.1994 44.8753 95.0684 44.8074C94.9374 44.7394 94.7894 44.7055 94.6245 44.7055C94.4595 44.7055 94.3043 44.7394 94.1733 44.8074C94.0423 44.8753 93.9307 44.965 93.8409 45.0742C93.7488 45.1858 93.676 45.3144 93.6226 45.4599C93.5692 45.6055 93.5329 45.7534 93.5159 45.9063H95.6967C95.6918 45.7486 95.6652 45.5982 95.6142 45.4551H95.6118Z" fill="white"/>
<path d="M101.181 44.4556L102.043 47.3399H102.055L102.877 44.4556H103.34L104.163 47.3399H104.175L105.036 44.4556H105.473L104.388 47.8227H103.937L103.107 44.9893H103.095L102.273 47.8227H101.822L100.737 44.4556H101.174H101.181Z" fill="white"/>
<path d="M109.332 44.5017C109.531 44.5963 109.696 44.7249 109.832 44.8874C109.968 45.0475 110.07 45.2367 110.14 45.4526C110.211 45.6685 110.245 45.8966 110.245 46.1416C110.245 46.3866 110.211 46.6146 110.14 46.8305C110.07 47.0464 109.968 47.2332 109.832 47.3957C109.696 47.5558 109.531 47.6844 109.332 47.7766C109.134 47.8712 108.908 47.9173 108.651 47.9173C108.394 47.9173 108.168 47.8712 107.969 47.7766C107.77 47.6844 107.605 47.5558 107.469 47.3957C107.334 47.2356 107.232 47.0464 107.161 46.8305C107.091 46.6146 107.057 46.3866 107.057 46.1416C107.057 45.8966 107.091 45.6685 107.161 45.4526C107.232 45.2367 107.334 45.0499 107.469 44.8874C107.603 44.7273 107.77 44.5987 107.969 44.5017C108.168 44.4071 108.394 44.3586 108.651 44.3586C108.908 44.3586 109.136 44.4071 109.332 44.5017ZM108.134 44.8292C107.986 44.9117 107.862 45.0208 107.765 45.1567C107.668 45.2925 107.593 45.4454 107.545 45.6176C107.494 45.7898 107.469 45.9645 107.469 46.144C107.469 46.3235 107.494 46.4982 107.545 46.6704C107.596 46.8426 107.668 46.9954 107.765 47.1313C107.862 47.2671 107.986 47.3739 108.134 47.4564C108.282 47.5388 108.454 47.5801 108.648 47.5801C108.842 47.5801 109.017 47.5388 109.165 47.4564C109.313 47.3739 109.437 47.2647 109.534 47.1313C109.631 46.9954 109.706 46.8426 109.755 46.6704C109.805 46.4982 109.83 46.3235 109.83 46.144C109.83 45.9645 109.805 45.7898 109.755 45.6176C109.704 45.4454 109.631 45.2925 109.534 45.1567C109.437 45.0208 109.313 44.9141 109.165 44.8292C109.017 44.7467 108.845 44.7055 108.648 44.7055C108.452 44.7055 108.28 44.7467 108.134 44.8292Z" fill="white"/>
<path d="M112.539 44.4556V45.2464H112.551C112.655 44.9723 112.818 44.7613 113.036 44.6133C113.257 44.4653 113.519 44.3974 113.822 44.412V44.8219C113.635 44.8122 113.466 44.8389 113.313 44.8971C113.16 44.9553 113.029 45.0402 112.917 45.1494C112.806 45.2586 112.721 45.3871 112.66 45.5375C112.6 45.6879 112.568 45.8529 112.568 46.03V47.8251H112.156V44.4581H112.534L112.539 44.4556Z" fill="white"/>
<path d="M115.94 43.1627V47.8227H115.528V43.1627H115.94Z" fill="white"/>
<path d="M120.622 47.8251V47.1847H120.61C120.566 47.2939 120.503 47.3933 120.418 47.4855C120.333 47.5777 120.236 47.6553 120.127 47.7184C120.018 47.7815 119.901 47.83 119.778 47.8664C119.654 47.9003 119.53 47.9173 119.409 47.9173C119.152 47.9173 118.929 47.8712 118.739 47.7766C118.55 47.6844 118.392 47.5559 118.266 47.3909C118.14 47.2284 118.046 47.0392 117.985 46.8233C117.924 46.6074 117.893 46.3793 117.893 46.1416C117.893 45.9039 117.922 45.6759 117.985 45.46C118.046 45.2441 118.14 45.0548 118.266 44.8923C118.392 44.7298 118.55 44.5988 118.739 44.5042C118.929 44.4096 119.152 44.3611 119.409 44.3611C119.535 44.3611 119.659 44.3756 119.778 44.4071C119.896 44.4363 120.011 44.4848 120.112 44.5478C120.217 44.6109 120.309 44.6885 120.389 44.7807C120.469 44.8729 120.532 44.9796 120.576 45.1009H120.588V43.17H121V47.83H120.622V47.8251ZM118.366 46.6607C118.407 46.833 118.473 46.9858 118.562 47.1216C118.652 47.2575 118.766 47.3667 118.904 47.4516C119.043 47.5365 119.212 47.5777 119.406 47.5777C119.625 47.5777 119.809 47.5365 119.957 47.4516C120.108 47.3667 120.229 47.2575 120.323 47.1216C120.418 46.9858 120.484 46.833 120.525 46.6607C120.566 46.4885 120.585 46.3163 120.585 46.1416C120.585 45.967 120.566 45.7947 120.525 45.6225C120.484 45.4503 120.416 45.2974 120.323 45.1616C120.229 45.0257 120.108 44.9166 119.957 44.8317C119.807 44.7468 119.622 44.7055 119.406 44.7055C119.21 44.7055 119.043 44.7468 118.904 44.8317C118.766 44.9166 118.652 45.0257 118.562 45.1616C118.473 45.2974 118.407 45.4503 118.366 45.6225C118.325 45.7947 118.303 45.967 118.303 46.1416C118.303 46.3163 118.322 46.4885 118.366 46.6607Z" fill="white"/>
<path d="M48.9358 6.7923C50.7673 6.2101 51.7764 4.25246 51.1942 2.42339C50.612 0.591896 48.6544 -0.417246 46.8253 0.164952C44.9938 0.747149 43.9847 2.70479 44.5669 4.53386C45.1491 6.36535 47.1067 7.37449 48.9358 6.7923Z" fill="white"/>
<path d="M56.3319 4.86375C57.1712 4.59691 57.6321 3.70178 57.3653 2.86245C57.0984 2.02311 56.2033 1.56221 55.364 1.82905C54.5246 2.09589 54.0637 2.99102 54.3306 3.83035C54.5974 4.66968 55.4925 5.13059 56.3319 4.86375Z" fill="white"/>
<path d="M54.2215 33.4909C47.6427 38.311 40.3022 42.6605 32.6463 46.1246C42.073 48.3369 51.5483 42.7648 54.2215 33.4909Z" fill="white"/>
<path d="M72.4662 7.38421C70.1399 3.62661 59.3838 6.40418 46.0296 12.8423C40.4478 9.54804 33.2795 9.3564 27.3581 12.9636C21.5846 16.4786 18.4723 22.7008 18.6542 29.0056C5.94293 37.969 -1.98951 46.2726 0.43389 50.1903C3.58261 55.2748 22.5816 49.7148 42.1507 37.9957C61.7174 26.2789 75.615 12.4712 72.4638 7.38421H72.4662ZM22.0965 39.0946C20.362 39.4609 19.1879 39.3759 18.7998 38.7452C18.3971 38.0927 18.8871 36.9598 20.0806 35.5262C20.6555 36.8846 21.3299 38.032 22.0965 39.0946ZM54.8257 26.4512C54.7626 25.8884 54.6753 25.328 54.5588 24.7677C46.9393 31.167 33.4154 38.8714 24.891 42.1608C25.4223 42.6217 25.9778 43.0438 26.5527 43.4368C17.8028 46.8111 10.8601 47.5825 9.14987 44.8195C7.43481 42.0492 11.5975 36.9914 18.875 31.3368C19.0108 32.1834 19.2073 33.0276 19.4669 33.8596C14.7705 37.7555 12.2064 40.9309 13.0336 42.27C15.8015 46.7432 48.014 29.1317 57.0962 19.2804C59.2698 16.9225 60.3687 15.1881 59.7986 14.2663C58.9957 12.9709 55.1847 13.6622 49.7969 15.8042C49.2463 15.2366 48.6641 14.7126 48.0552 14.2299C55.9416 10.9696 62.0085 9.93617 63.6168 12.5318C65.2834 15.222 61.584 20.6074 54.8281 26.4487L54.8257 26.4512ZM51.0365 17.2209C52.5721 16.9662 53.6103 17.0996 53.9718 17.6842C54.3308 18.264 53.9766 19.2077 53.0475 20.4012C52.4945 19.2901 51.8419 18.2446 51.0365 17.2209Z" fill="white"/>
</g>
<defs>
<clipPath id="clip0_98380_299">
<rect width="121" height="52.0775" fill="white"/>
</clipPath>
</defs>
</svg>
